<?xml version="1.0" standalone="no"?><!DOCTYPE svg PUBLIC "-//W3C//DTD SVG 1.1//EN" "http://www.w3.org/Graphics/SVG/1.1/DTD/svg11.dtd"><svg t="1610084485612" class="icon" viewBox="0 0 5324 1024" version="1.1" xmlns="http://www.w3.org/2000/svg" p-id="1103" xmlns:xlink="http://www.w3.org/1999/xlink" width="249.5625" height="48"><defs><style type="text/css"></style></defs><path d="M1644.07852282 262.10877847v202.74331794H1444.48817511V262.10877847H1354.76295267v500.19795077h89.72522244v-208.34045113h199.59034771v208.34045113h89.72522244V262.10877847h-89.72522244zM3720.46828632 351.22296017h99.89294037c40.98861292 0 74.18034599 32.97175839 74.18034599 73.64263014a73.91148806 73.91148806 0 0 1-74.18034599 73.66707175H3720.46828632V351.22296017z m-89.67633918-89.1141817v500.19795077h89.70078082v-222.58992122l186.75849214 222.58992122h116.58657342l-153.07792648-182.33455718c76.84448362-24.44162965 124.35901164-100.69951415 112.06487192-179.86595259-12.29413972-79.16643843-80.75514436-137.70414143-161.41252219-137.997441h-190.7669194 0.14664977z m-848.56449812-1.49093939v312.11961061l-217.7993618-312.11961061H2492.76522909v500.14906748h89.74966407V447.22968144l218.8747935 313.56166675h70.44077666V260.61783907h-89.6030143z m-837.61464805 251.25995277c0.04888326-92.51156822 75.5979605-167.47404635 168.7450111-167.44960474 93.17149222 0.04888326 168.64724457 75.06024464 168.62280294 167.57181289s-75.52463562 167.49848798-168.69612784 167.49848797c-44.75262389 0-87.64768391-17.64685661-119.27515268-49.0543507s-49.39653351-74.0336962-49.39653352-118.4685789v-0.09776652z m-89.72522244 0.09776652c0 103.82804274 62.93719635 197.39060105 159.50607509 237.13269085a259.71675664 259.71675664 0 0 0 281.61645679-55.60470746 255.3172633 255.3172633 0 0 0 56.02021516-279.68556806c-39.9865061-95.90895473-134.23343002-158.43064338-238.7458384-158.43064337-142.64135063 0.02444164-258.2747005 114.82677609-258.34802537 256.51490316l-0.04888327 0.07332488z m1227.80082375-0.09776652c0.04888326-92.51156822 75.5979605-167.49848798 168.76945273-167.44960474 93.17149222 0.04888326 168.62280294 75.08468628 168.57391968 167.59625453-0.02444164 92.51156822-75.57351887 167.49848798-168.7450111 167.44960471-44.72818226 0-87.62324229-17.64685661-119.27515268-49.0543507s-49.39653351-74.0336962-49.39653351-118.46857891l0.07332488-0.07332489z m-89.79854733 0.09776652c-0.02444164 103.82804274 62.93719635 197.39060105 159.48163346 237.13269085 96.56887873 39.71764818 207.72941038 17.79350638 281.61645681-55.60470746s96.05560451-183.77661333 56.02021516-279.68556806c-39.9865061-95.90895473-134.20898841-158.43064338-238.74583842-158.43064337-142.64135063 0.02444164-258.29914212 114.82677609-258.37246701 256.51490316v0.07332488z" p-id="1104"></path></svg>